PathFileType	4	(X/Y/Z)	C:\Users\Basilio\Documents\Thesis Gigler\squatting_fais\c3dfiles\019\SLS_front_pre4\markers_experimental.trc
DataRate	CameraRate	NumFrames	NumMarkers	Units	OrigDataRate	OrigDataStartFrame	OrigNumFrames
200.000000	200.000000	4	59	mm	200.000000	975	1561
Frame#	Time	LBHD			RBHD			C7			T10			CLAV			LSHO			LUUPA			LMUPA			LDUPA			LLEP			LMEP			LRAD			LUL			LRFIN			RSHO			RUPA1			RMUPA			RDUPA			RLEP			RMEP			RRAD			RUL			RUFIN			LASI			RASI			USACR			LSACR			RSACR			LTHI1			LTHI2			LTHI3			LTHI4			LLFC			LTIB1			LTIB2			LTIB3			LTIB4			LLMAL			LMMAL			LHEE			LMT1			LMT2			LMT5			RTHI			RTHI2			RTHI3			RTHI4			RLFC			RTIB1			RTIB2			RTIB3			RTIB4			RLMAL			RMMAL			RHEE			RMT1			RMT2			RMT5			FHD			
		X1	Y1	Z1	X2	Y2	Z2	X3	Y3	Z3	X4	Y4	Z4	X5	Y5	Z5	X6	Y6	Z6	X7	Y7	Z7	X8	Y8	Z8	X9	Y9	Z9	X10	Y10	Z10	X11	Y11	Z11	X12	Y12	Z12	X13	Y13	Z13	X14	Y14	Z14	X15	Y15	Z15	X16	Y16	Z16	X17	Y17	Z17	X18	Y18	Z18	X19	Y19	Z19	X20	Y20	Z20	X21	Y21	Z21	X22	Y22	Z22	X23	Y23	Z23	X24	Y24	Z24	X25	Y25	Z25	X26	Y26	Z26	X27	Y27	Z27	X28	Y28	Z28	X29	Y29	Z29	X30	Y30	Z30	X31	Y31	Z31	X32	Y32	Z32	X33	Y33	Z33	X34	Y34	Z34	X35	Y35	Z35	X36	Y36	Z36	X37	Y37	Z37	X38	Y38	Z38	X39	Y39	Z39	X40	Y40	Z40	X41	Y41	Z41	X42	Y42	Z42	X43	Y43	Z43	X44	Y44	Z44	X45	Y45	Z45	X46	Y46	Z46	X47	Y47	Z47	X48	Y48	Z48	X49	Y49	Z49	X50	Y50	Z50	X51	Y51	Z51	X52	Y52	Z52	X53	Y53	Z53	X54	Y54	Z54	X55	Y55	Z55	X56	Y56	Z56	X57	Y57	Z57	X58	Y58	Z58	X59	Y59	Z59	

976	4.875	-290.3142700195313	1250.298828125	-785.7702636718752	-296.2545471191407	1246.8662109375	-645.1091918945314	-345.5805053710938	1111.875244140625	-697.9942626953126	-517.6256103515626	884.1220703125002	-700.4185180664064	nan	nan	nan	-267.6273193359376	1109.61572265625	-817.2038574218752	-152.6526794433594	1100.95166015625	-869.652282714844	-124.7617263793946	1084.72021484375	-829.0396118164065	-86.44256591796876	1101.955200195313	-871.2110595703127	-15.02251625061036	1088.934204101563	-908.926940917969	-12.24948120117188	1029.641967773438	-908.731140136719	237.9351959228516	1090.841918945313	-834.061706542969	229.8454589843751	1109.06689453125	-900.0923461914065	308.1990051269532	1112.377685546875	-831.1846313476565	-257.6278381347657	1108.224853515625	-598.7805175781251	-147.5506896972657	1073.31982421875	-490.6626281738282	-127.2225799560547	1093.830688476563	-531.0578613281251	-79.01596069335939	1071.307861328125	-494.3406066894532	-2.062877655029297	1075.076538085938	-510.6300354003907	-6.099640369415285	1014.805725097656	-514.7405395507814	227.2581787109376	1100.364501953125	-616.3936157226564	242.0394897460938	1114.702392578125	-553.5015869140626	308.8473510742188	1122.667846679688	-627.2993164062501	-462.5639648437501	678.5077514648439	-826.337585449219	-456.6499328613282	657.8954467773439	-622.8248291015626	-595.7635498046876	747.0525512695314	-713.0120849609376	-611.4708862304689	718.5154418945314	-739.3674926757814	-608.6475219726564	716.7554321289064	-684.8957519531251	-360.1365661621094	546.7615966796876	-928.138854980469	-276.4149780273438	563.2390136718751	-926.0030517578127	-266.4611816406251	604.5819702148439	-904.1889648437502	-230.0712432861329	521.8700561523439	-921.1079711914065	-142.3273315429688	484.4428100585939	-905.700378417969	-6.004999637603762	424.2317504882814	-881.0972900390627	-20.37169075012207	354.5021972656251	-933.5086669921877	10.3221664428711	376.4566955566407	-910.1280517578127	64.26193237304689	316.2562561035157	-878.5501708984377	96.56135559082034	176.6113586425782	-905.4895019531252	109.3283386230469	187.609603881836	-825.6750488281252	59.85601043701173	118.5387573242188	-850.2135009765627	256.8383483886719	182.7225341796875	-835.1787719726565	264.6068725585938	182.7949981689453	-873.1085205078127	233.1182556152344	139.7949371337891	-922.8930664062502	-403.2981872558595	518.8771972656251	-557.4553833007814	-338.3478088378907	543.0979003906251	-565.3360595703126	-333.7866210937501	570.2260742187501	-584.1551513671876	-275.3261108398438	487.1452026367189	-574.5872802734376	-160.4852600097657	401.4736938476564	-623.2609863281251	-191.7683258056641	257.6662292480469	-712.0571289062501	-275.3437805175782	208.4548950195313	-655.8881835937501	-249.0810089111329	191.1400756835938	-696.2658081054689	-285.1834411621094	175.5063781738282	-739.8882446289064	-378.8243713378907	123.3248062133789	-691.3171997070314	-362.6598510742188	133.2664947509766	-770.725769042969	-455.1842651367189	106.4265670776367	-749.9291992187501	-256.0625000000001	56.34551239013673	-774.3679199218752	-251.9101257324219	59.16301727294923	-728.5496826171876	-292.4036865234376	48.57386398315431	-674.3291015625001	-161.4616241455078	1273.826904296875	-640.0853881835939	
977	4.88	-290.3460388183594	1250.418823242188	-786.0125732421877	-296.3757019042969	1247.008911132813	-645.3897705078126	-345.6434020996094	1111.99609375	-698.1600341796876	-517.6737060546876	884.2315063476565	-700.3784179687501	nan	nan	nan	-267.7425231933594	1109.714721679688	-817.401062011719	-153.2359924316407	1101.149291992188	-869.8972167968752	-124.8776550292969	1084.863159179688	-829.2239379882815	-86.42333984375001	1102.05517578125	-871.0690917968752	-15.13970851898194	1089.15576171875	-909.099792480469	-12.44793701171875	1029.889770507813	-908.9382324218752	237.640365600586	1091.270874023438	-834.3618774414065	229.6629028320313	1109.368408203125	-900.4436645507815	308.0348510742188	1112.735717773438	-831.3867797851565	-257.6791992187501	1108.577270507813	-599.1311645507814	-147.6351776123047	1073.602783203125	-490.7883911132814	-127.2049636840821	1094.089599609375	-531.2607421875001	-79.0735321044922	1071.666625976563	-494.526092529297	-2.130682229995728	1075.486694335938	-510.8003540039064	-6.155437946319582	1015.203552246094	-514.8374633789064	227.331039428711	1100.673706054688	-616.3198242187501	241.9939270019532	1115.057250976563	-553.3206787109376	309.1204223632813	1123.026733398438	-627.1493530273439	-462.6150512695314	678.6443481445314	-826.3792114257815	-456.5764160156251	657.9927368164064	-622.9017333984376	-595.8325195312501	747.0526123046876	-712.9401245117189	-611.3632812500001	718.4961547851564	-739.3101196289064	-608.7265014648439	716.8699951171876	-684.7249755859376	-360.1629943847657	546.9168090820314	-928.0770263671877	-276.2536010742188	563.3751220703126	-925.8616333007815	-266.4981689453126	604.7789306640626	-904.1356201171877	-230.0617980957032	522.1101684570314	-921.0131835937502	-142.3984375	484.6570434570314	-905.5043945312502	-6.170701026916506	424.2503662109376	-880.7893066406252	-20.56269836425782	354.5259399414063	-933.1805419921877	10.09430599212647	376.4776916503907	-909.9013671875002	63.1575164794922	315.6553039550782	-878.0992431640627	96.19214630126956	176.4696960449219	-905.0880126953127	108.819694519043	187.4517211914063	-825.3032226562502	59.58522033691408	118.2776489257813	-849.9552001953127	256.3390808105469	182.5926055908203	-834.8992919921877	264.0195922851563	182.6531677246094	-872.8983154296877	232.5540924072266	139.5934753417969	-922.5627441406252	-403.1197814941407	518.8088989257814	-557.6601562500001	-338.0951232910157	543.2319335937501	-565.6172485351564	-333.6721191406251	570.2352294921876	-584.4437866210939	-275.1536865234376	487.1134033203126	-575.1192016601564	-160.337142944336	401.4312744140626	-623.7868652343751	-191.7283477783203	257.7001037597657	-712.4998168945314	-275.1983032226563	208.4055633544922	-656.1940917968751	-249.0542755126954	191.1360321044922	-696.6842041015626	-285.1577758789063	175.4900207519532	-740.2453002929689	-378.7675170898438	123.3878631591797	-691.4096679687501	-362.5488281250001	133.1054992675782	-770.9983520507815	-455.1387329101564	106.5034561157227	-749.9727783203126	-256.0447082519532	56.22669601440431	-774.4534301757815	-251.915023803711	59.07546615600587	-728.5885009765626	-292.4314575195313	48.66054534912111	-674.3894653320314	-161.6181793212891	1273.917846679688	-640.3507080078126	
978	4.885	-290.4461059570313	1250.463134765625	-786.244323730469	-296.4691772460938	1247.27099609375	-645.6514892578126	-345.6160888671876	1112.227661132813	-698.2244873046876	-517.7371215820314	884.323425292969	-700.3457641601564	nan	nan	nan	-267.9830322265626	1109.923706054688	-817.627380371094	-152.9880523681641	1101.322021484375	-869.9859008789065	-125.4488143920899	1084.701538085938	-829.411071777344	-86.5514602661133	1102.267700195313	-871.3403930664065	-15.37726879119873	1089.43896484375	-909.2482910156252	-12.56966781616211	1030.147338867188	-909.0947875976565	237.2648620605469	1092.004272460938	-834.769470214844	229.531478881836	1109.658935546875	-900.6663818359377	308.1236267089844	1113.088012695313	-831.6102294921877	-257.6916503906251	1108.747314453125	-599.2919311523439	-147.6518249511719	1073.958129882813	-490.950408935547	-127.1534194946289	1094.4072265625	-531.3437500000001	-79.01211547851564	1071.98046875	-494.6021728515626	-2.068439722061158	1075.828247070313	-510.878143310547	-6.041222572326662	1015.636474609375	-514.8792724609376	227.4109191894532	1100.964111328125	-616.3945922851564	241.7040252685547	1115.704467773438	-553.1177368164064	309.6103210449219	1123.087768554688	-627.0065307617189	-462.7523193359376	678.7355346679689	-826.4210205078127	-456.4300231933595	658.0700683593751	-623.0415649414064	-595.8336791992189	747.1660766601564	-712.7904663085939	-611.6522827148439	718.6580200195314	-739.1926879882814	-608.6984863281251	716.9273681640626	-684.6758422851564	-360.1108703613282	547.1265258789064	-928.033874511719	-276.3390808105469	563.5675048828126	-925.859558105469	-266.5401000976563	604.9826660156251	-904.0464477539065	-230.0826721191407	522.3095092773439	-920.9471435546877	-142.3449401855469	484.8107299804689	-905.3323364257815	-6.270770072937013	424.2831115722657	-880.5623168945315	-20.73586082458496	354.6367187500001	-932.9642333984377	9.735683441162111	377.0658874511719	-909.689636230469	63.65687561035158	316.1306762695313	-877.8581542968752	95.06147766113283	176.8442687988282	-905.824401855469	108.3850555419922	187.3304901123047	-825.0052490234377	59.16209411621095	118.1000137329102	-849.6824951171877	255.9033508300782	182.3421325683594	-834.4693603515627	262.9626159667969	182.4492340087891	-872.941833496094	232.2907867431641	139.3075256347657	-922.0667724609377	-402.8887023925782	518.8246459960939	-558.0773925781251	-337.7743225097657	543.4134521484376	-565.9193115234376	-333.4921264648438	570.2810668945314	-584.6862792968751	-274.9963989257813	487.2069091796876	-575.6721191406251	-160.2638397216797	401.4772033691407	-624.3524169921876	-191.7495880126953	257.6576232910157	-713.0276489257814	-275.0706176757813	208.4270324707032	-656.4672851562501	-248.9750061035157	191.1224975585938	-697.0317382812501	-285.1062316894532	175.4488525390625	-740.5034790039064	-378.8130187988282	123.4718475341797	-691.6571655273439	-362.3793945312501	132.9111633300782	-771.1995239257815	-455.3353576660157	106.3741226196289	-750.0278930664064	-256.0863037109376	56.03771591186525	-774.4893798828127	-251.8667449951172	59.11119079589845	-728.6613769531251	-292.4684448242188	48.69607543945314	-674.3786621093751	-161.686279296875	1274.176635742188	-640.5986938476564	
979	4.89	-290.6734008789063	1250.708129882813	-786.3953857421877	-296.5706176757813	1247.57275390625	-645.8751831054689	-345.6282043457032	1112.3994140625	-698.4131469726564	-517.7745361328126	884.441833496094	-700.3186035156251	nan	nan	nan	-268.0966796875001	1110.107299804688	-817.789978027344	-153.1028442382813	1101.75634765625	-869.7769165039065	-125.581283569336	1084.89013671875	-829.5172119140627	-86.4020233154297	1102.328125	-871.1153564453127	-15.54783821105957	1089.67626953125	-909.4783325195315	-12.81925296783448	1030.433959960938	-909.2906494140627	237.0798645019532	1092.390991210938	-835.0531005859377	229.2878570556641	1110.024047851563	-900.8828735351565	307.9598083496094	1113.540771484375	-831.8548583984377	-257.8016967773438	1109.031005859375	-599.5972290039064	-147.5631103515625	1074.271728515625	-491.0705871582032	-127.1896514892578	1094.804321289063	-531.6358642578126	-78.9187469482422	1072.527587890625	-494.7859802246095	-2.173344612121582	1076.17919921875	-511.0218505859376	-6.206844329833986	1015.790649414063	-515.2295532226564	226.913070678711	1101.030639648438	-620.0133056640626	241.4348144531251	1116.180786132813	-552.8116455078126	310.1424865722657	1123.900390625	-626.3653564453126	-462.7955322265626	678.9452514648439	-826.4715576171877	-456.3713684082032	658.1315917968751	-623.1375122070314	-595.8752441406251	747.3076171875001	-712.6909790039064	-611.6437988281251	718.7646484375001	-739.1181030273439	-608.6156005859376	716.9882202148439	-684.5930786132814	-360.1208190917969	547.3192138671876	-928.053405761719	-276.3347167968751	563.7717285156251	-925.7889404296877	-266.5303649902344	605.2040405273439	-904.032409667969	-230.0260925292969	522.5545043945314	-920.9073486328127	-142.4179382324219	484.9908447265626	-905.172790527344	-6.409475326538088	424.4059143066407	-880.357360839844	-20.96420288085938	354.7607421875001	-932.7175292968752	9.363177299499513	376.9073486328126	-909.5981445312502	63.34443664550783	316.0382385253907	-877.5891113281252	95.41101074218751	176.2718811035157	-904.4631958007815	107.8560104370117	187.2852478027344	-824.7019042968752	58.67104721069337	117.923942565918	-849.4742431640627	255.7419738769532	182.7207489013672	-833.8992309570315	264.0867309570313	182.2393341064453	-871.476989746094	231.8130035400391	139.0206756591797	-921.5832519531252	-402.7125549316407	518.8762207031251	-558.2814331054689	-337.6644287109376	543.3476562500001	-566.1713256835939	-333.4177551269532	570.3844604492189	-585.0314941406251	-274.7481689453126	487.2137451171876	-576.0965576171876	-160.1403350830078	401.6003417968751	-625.0684204101564	-191.7293701171875	257.6853027343751	-713.5327148437501	-274.9381103515626	208.4844970703126	-656.9214477539064	-248.8744049072266	191.1162719726563	-697.3260498046876	-285.1260070800782	175.4394989013672	-740.7965087890626	-378.7906799316407	123.5973892211914	-691.7968139648439	-362.3995666503907	132.8337097167969	-771.3895263671877	-455.3292236328126	106.3652877807617	-750.0242309570314	-256.0912170410157	55.9134864807129	-774.5098266601565	-251.8888244628907	59.14294052124025	-728.7048950195314	-292.3910522460938	48.7589454650879	-674.4655151367189	-161.8687286376953	1274.356811523438	-640.8873901367189	
